<?xml version="1.0" encoding="utf-8"?>
<!-- Generator: Adobe Illustrator 17.0.2, SVG Export Plug-In . SVG Version: 6.00 Build 0)  -->
<!DOCTYPE svg PUBLIC "-//W3C//DTD SVG 1.1//EN" "http://www.w3.org/Graphics/SVG/1.1/DTD/svg11.dtd">
<svg version="1.1" id="Layer_1" xmlns="http://www.w3.org/2000/svg" xmlns:xlink="http://www.w3.org/1999/xlink" x="0px" y="0px"
	 width="600px" height="600px" viewBox="0 0 600 600" enable-background="new 0 0 600 600" xml:space="preserve">
<ellipse fill="#660066" stroke="#660066" stroke-width="120" stroke-miterlimit="10" cx="299.667" cy="302" rx="230.5" ry="230"/>
<ellipse cx="299.667" cy="300" rx="230.5" ry="230"/>
<path fill="#FFFFFF" stroke="#000000" stroke-miterlimit="10" d="M526.907,339.446c-1.647,8.066,1.647-8.066-1.424,6.907
	c-3.07,14.972-7.599,29.415-13.431,43.173c-5.832,13.758-12.967,26.833-21.252,39.069c-8.284,12.236-17.718,23.634-28.146,34.039
	s-21.851,19.819-34.113,28.085c-12.263,8.267-25.365,15.387-39.154,21.206c-13.788,5.819-28.262,10.338-43.267,13.402
	c-15.005,3.064-30.541,4.673-46.454,4.673s-31.449-1.609-46.454-4.673c-15.005-3.064-29.479-7.582-43.267-13.402
	c-13.788-5.819-26.891-12.939-39.154-21.206s-23.685-17.68-34.113-28.085s-19.862-21.803-28.146-34.039s-15.42-25.31-21.252-39.069
	c-5.832-13.758-10.36-28.201-13.431-43.173S69.167,315.878,69.167,300s0-9,0.168-12.508c13.702-2.933,51.207,1.076,184.735,1.175
	c10.214-8.214,60.4-8.352,50.914-8.899c-41.227-2.377-166.117-7.679-203.671-31.87c-12.387-7.98-18.973-18.15-14.721-35.768
	c4.842-21.497,32.596-59.283,50.088-74.765c10.428-10.405,21.851-19.819,34.113-28.085s25.365-15.387,39.154-21.206
	c13.788-5.819,28.262-10.338,43.267-13.402S283.754,70,299.667,70s31.449,1.609,46.454,4.673s29.479,7.582,43.267,13.402
	c13.788,5.819,26.891,12.939,39.154,21.206s23.685,17.68,34.113,28.085s19.862,21.803,28.146,34.039
	c8.285,12.236,15.42,25.31,21.252,39.069c5.31,12.225,13.524,31.453,15.01,49.946c0.229,2.847-179.481-3.039-189.672,0.835
	c-4.626,1.759-12.449,4.391-13.711,4.829c-4.695,1.627-12.13,2.588-18.826,3.257c-0.921,0.092-8.005-0.217-8.005-0.217
	c24.754-0.007,170.626,12.246,185.317,15.043C520.833,287.5,530.52,312.899,526.907,339.446z M300,279.667
	c-63.911,0-116.054,49.031-116.054,112.803s51.81,115.469,115.72,115.469s115.72-51.697,115.72-115.469S363.911,279.667,300,279.667
	z M299.667,97.694c-48.323,0-87.496,39.088-87.496,87.306s39.173,84.167,87.496,84.167s87.496-35.949,87.496-84.167
	S347.989,97.694,299.667,97.694z"/>
</svg>
