<?xml version="1.0" encoding="utf-8"?>
<!-- Generator: Adobe Illustrator 17.0.2, SVG Export Plug-In . SVG Version: 6.00 Build 0)  -->
<!DOCTYPE svg PUBLIC "-//W3C//DTD SVG 1.1//EN" "http://www.w3.org/Graphics/SVG/1.1/DTD/svg11.dtd">
<svg version="1.1" id="Layer_1" xmlns="http://www.w3.org/2000/svg" xmlns:xlink="http://www.w3.org/1999/xlink" x="0px" y="0px"
	 width="600px" height="600px" viewBox="0 0 600 600" enable-background="new 0 0 600 600" xml:space="preserve">
<ellipse fill="#660066" stroke="#660066" stroke-width="120" stroke-miterlimit="10" cx="299.667" cy="302" rx="230.5" ry="230"/>
<ellipse cx="299.667" cy="300" rx="230.5" ry="230"/>
<path fill="#FFFFFF" stroke="#000000" stroke-miterlimit="10" d="M521.92,338.957c-1.617,7.917,1.617-7.917-1.398,6.78
	c-3.013,14.696-7.459,28.873-13.184,42.378c-5.725,13.505-12.728,26.339-20.861,38.349c-8.131,12.011-17.392,23.199-27.627,33.412
	c-10.236,10.213-21.448,19.454-33.485,27.568c-12.037,8.115-24.898,15.104-38.433,20.815c-13.534,5.712-27.741,10.148-42.47,13.155
	c-14.729,3.008-29.978,4.587-45.598,4.587s-30.87-1.579-45.598-4.587c-14.729-3.008-28.936-7.442-42.47-13.155
	c-13.534-5.712-26.396-12.701-38.433-20.815c-12.037-8.115-23.249-17.354-33.485-27.568c-10.236-10.213-19.496-21.401-27.627-33.412
	c-8.131-12.011-15.136-24.844-20.86-38.349c-5.725-13.505-10.169-27.681-13.184-42.378c-3.014-14.696-4.596-29.914-4.596-45.499
	c0-15.585,0-8.834,0.165-12.278c13.45-2.879,50.264,1.056,181.332,1.153c10.026-8.063,59.287-8.198,49.976-8.735
	c-40.467-2.333-163.057-7.538-199.919-31.283c-12.159-7.833-18.623-17.816-14.45-35.109c4.753-21.101,31.995-58.191,49.165-73.388
	c10.236-10.213,21.448-19.454,33.485-27.568c12.036-8.114,24.898-15.104,38.433-20.815c13.534-5.712,27.741-10.148,42.47-13.155
	c14.729-3.008,29.977-4.586,45.597-4.586c15.62,0,30.87,1.579,45.598,4.587c14.729,3.008,28.936,7.442,42.47,13.155
	c13.534,5.712,26.396,12.701,38.433,20.815s23.249,17.354,33.485,27.568c10.236,10.213,19.496,21.401,27.627,33.412
	c8.132,12.011,15.136,24.844,20.86,38.349c5.212,12,13.275,30.874,14.733,49.026c0.225,2.795-176.174-2.983-186.178,0.82
	c-4.541,1.727-12.22,4.31-13.458,4.74c-4.609,1.597-11.907,2.54-18.479,3.197c-0.904,0.09-7.858-0.213-7.858-0.213
	c24.298-0.007,167.483,12.02,181.903,14.766C515.958,287.968,525.466,312.899,521.92,338.957z M299.193,280.279
	c-62.734,0-113.916,48.128-113.916,110.725s50.855,113.342,113.588,113.342s113.588-50.745,113.588-113.342
	S361.927,280.279,299.193,280.279z M298.866,101.658c-47.433,0-85.884,38.368-85.884,85.698s38.451,82.616,85.884,82.616
	s85.884-35.287,85.884-82.616S346.298,101.658,298.866,101.658z"/>
</svg>
